<?xml version="1.0" encoding="UTF-8"?><svg id="Layer_1" xmlns="http://www.w3.org/2000/svg" width="1366" height="768" viewBox="0 0 1366 768"><defs><style>.cls-1{fill:#ff8c56;}.cls-2{fill:#a5cce9;}.cls-3{stroke:#a87ab7;}.cls-3,.cls-4{fill:none;stroke-miterlimit:10;}.cls-4{stroke:#e2d3e7;}</style></defs><path class="cls-1" d="m249.94,39.7v1c13.56,0,27.32.76,40.9,2.25,49.67,5.46,96.78,20.49,140.03,44.66,41.77,23.35,78.2,54.21,108.28,91.71,30.07,37.51,52.27,79.77,65.99,125.62,14.2,47.47,18.62,96.72,13.16,146.39-10.03,91.17-53.25,174.95-121.69,235.9-67.94,60.5-155.23,93.81-245.77,93.81-13.57,0-27.34-.76-40.92-2.25-49.67-5.46-96.78-20.49-140.03-44.66-41.77-23.35-78.2-54.21-108.28-91.71-30.07-37.51-52.27-79.77-65.99-125.62-14.2-47.47-18.62-96.72-13.16-146.39,10.03-91.17,53.25-174.95,121.69-235.89C72.09,74.02,159.37,40.7,249.92,40.7l.02-1m-.02,0c-186.78,0-347.57,140.64-368.46,330.6-22.41,203.75,124.6,387.08,328.34,409.49,13.79,1.52,27.47,2.26,41.03,2.26,186.78,0,347.57-140.64,368.46-330.6,22.41-203.75-124.6-387.08-328.34-409.49-13.79-1.52-27.47-2.26-41.03-2.26h0Z"/><path class="cls-1" d="m278.27,43.75c13.21,0,26.61.74,39.84,2.19,48.37,5.32,94.25,19.95,136.37,43.5,40.68,22.74,76.16,52.79,105.44,89.31,29.29,36.52,50.91,77.68,64.26,122.34,13.83,46.23,18.14,94.19,12.82,142.56-9.77,88.79-51.85,170.37-118.51,229.73-66.17,58.91-151.17,91.36-239.34,91.36-13.22,0-26.63-.74-39.85-2.19-48.37-5.32-94.25-19.95-136.37-43.5-40.68-22.74-76.16-52.79-105.44-89.31-29.29-36.52-50.91-77.68-64.26-122.33-13.83-46.23-18.14-94.19-12.82-142.56,9.77-88.79,51.85-170.37,118.51-229.72,66.16-58.91,151.17-91.36,239.36-91.36h0m-.02-1c-181.91,0-338.5,136.97-358.85,321.98-21.82,198.43,121.35,376.99,319.78,398.81,13.43,1.48,26.75,2.2,39.96,2.2,181.91,0,338.5-136.97,358.85-321.98,21.82-198.43-121.35-376.99-319.78-398.81-13.43-1.48-26.75-2.2-39.96-2.2h0Z"/><path class="cls-1" d="m268.28,27.11v1c13.59,0,27.38.76,40.99,2.26,49.78,5.47,96.99,20.53,140.34,44.76,41.86,23.4,78.37,54.32,108.51,91.91,30.14,37.59,52.39,79.94,66.13,125.89,14.23,47.57,18.67,96.93,13.19,146.71-10.05,91.37-53.36,175.33-121.96,236.41-68.09,60.63-155.57,94.02-246.31,94.02-13.6,0-27.4-.76-41.01-2.26-49.78-5.47-96.99-20.53-140.34-44.76-41.86-23.4-78.37-54.32-108.51-91.91-30.14-37.59-52.39-79.94-66.13-125.89-14.23-47.57-18.67-96.93-13.19-146.71,10.05-91.37,53.36-175.33,121.96-236.41C90.04,61.5,177.51,28.11,268.26,28.11l.02-1m-.02,0c-187.19,0-348.32,140.95-369.26,331.32-22.46,204.19,124.87,387.92,329.06,410.38,13.82,1.52,27.53,2.26,41.12,2.26,187.19,0,348.32-140.95,369.26-331.32,22.46-204.19-124.87-387.92-329.06-410.38-13.82-1.52-27.53-2.26-41.12-2.26h0Z"/><path class="cls-1" d="m274.48,46.41c24.96,40.1,33.01,87.64,36.77,133.99,3.86,47.66,4.3,95.63,1.65,143.37-2.69,48.45-8.63,96.72-17.76,144.39s-21.14,93.61-36.27,139.11-33.72,91.07-55.12,134.62c-2.63,5.36-5.31,10.69-8.03,16-.44.86.85,1.62,1.3.76,22.08-43.13,41.23-87.73,57.31-133.43,16.19-46.04,29.27-93.18,39.15-140.98,9.76-47.24,16.4-95.12,19.84-143.23,3.48-48.68,3.67-97.6.48-146.3-2.99-45.7-8.69-92.8-29.63-134.2-2.57-5.08-5.37-10.02-8.38-14.85-.51-.82-1.81-.07-1.3.76h0Z"/><path class="cls-1" d="m-73.3,370.63c36.74,25.41,76.86,45.56,118.74,61,42.43,15.64,86.52,26.5,131.08,33.98,44.82,7.52,90.17,11.67,135.56,13.7,47.31,2.12,94.94,2.69,142.23,0,48.32-2.76,96.86-9.76,142.48-26.46,5.5-2.01,10.94-4.18,16.34-6.46.89-.37.12-1.67-.76-1.3-45.35,19.17-94.21,27.98-143.1,31.72-47.03,3.59-94.46,3.24-141.57,1.62-45.48-1.57-90.95-5.1-135.96-11.9-44.01-6.65-87.63-16.42-129.82-30.67-42.28-14.28-83.08-33.12-120.65-57.29-4.66-3-9.26-6.08-13.81-9.23-.8-.55-1.55.75-.76,1.3h0Z"/><path class="cls-1" d="m-18.9,214.92c18.62,2.35,36.88,7.43,54.11,14.88s33.25,17.08,47.95,28.55,28.1,24.84,39.7,39.53c11.62,14.72,21.47,30.87,29.17,47.97s13.48,36.09,16.41,55.09c3.61,23.39,2.51,47.24-7.32,69.04-8.37,18.57-21.67,34.63-37.27,47.59-17.33,14.41-37.67,24.79-58.73,32.59-21.41,7.93-43.55,12.91-65.73,18.1-17.17,4.02-35.99,9.2-48.59,22.34-2.97,3.09-5.46,6.6-7.44,10.4-.44.86.85,1.62,1.3.76,8.93-17.24,27.92-24.86,45.66-29.67,10.13-2.75,20.44-4.77,30.63-7.23,11.59-2.81,23.11-5.94,34.44-9.69,21.65-7.17,42.82-16.64,61.32-30.13,16.34-11.92,30.7-26.91,40.75-44.55,4.91-8.62,8.76-17.86,11.2-27.48,2.98-11.73,3.74-23.91,3.03-35.96-1.21-20.59-6.1-41.06-13.49-60.29-6.78-17.63-15.8-34.37-26.7-49.8s-23.52-29.41-37.69-41.76-29.7-22.9-46.4-31.34-34.6-14.73-53.01-18.33c-4.41-.86-8.84-1.56-13.3-2.12-.96-.12-.95,1.38,0,1.5h0Z"/><path class="cls-1" d="m599.21,295.18c-26.97,14-52.06,31.53-74.61,51.89s-42.55,43.55-59.4,68.84c-16.8,25.2-30.45,52.51-40.34,81.14-5.81,16.83-10.24,34.47-4.86,52.02,4.75,15.47,15.02,28.55,25.49,40.58,10.5,12.07,21.38,23.99,33.68,34.26,11.56,9.65,24.64,17.88,39.3,21.82,3.6.96,7.26,1.64,10.95,2.07.96.11.95-1.39,0-1.5-31.58-3.67-55.78-27.51-76.05-50.01-10.65-11.81-21.53-24.01-28.38-38.52-3.56-7.54-5.81-15.69-6.05-24.04-.26-9.47,1.83-18.81,4.59-27.82,8.83-28.85,22.14-56.52,38.26-81.99,15.94-25.19,34.99-48.4,56.55-68.98,21.69-20.7,45.94-38.71,72.11-53.34,3.14-1.76,6.31-3.46,9.51-5.12.86-.44.1-1.74-.76-1.3h0Z"/><path class="cls-1" d="m279.51,42.23c5.44,22.79,18.98,42.15,30.27,62.31,6.14,10.98,11.4,22.32,14.96,34.41s5.83,25.61,7.06,38.67c2.37,25.28,1.91,50.86,1.79,76.22-.11,25.05-.59,50.11-1.65,75.14-2.13,50.29-6.59,100.56-15.27,150.17-8.51,48.7-21.14,96.78-39.52,142.72-9.07,22.67-19.36,45.1-31.69,66.2-11.44,19.57-25.42,38.44-44.24,51.48-4.52,3.14-9.3,5.87-14.27,8.23-.87.41-.11,1.71.76,1.3,41.8-19.84,64.29-65.94,82.17-106.13,20.29-45.63,34.57-93.74,44.36-142.66s15.32-99.7,18.16-150.01c1.43-25.45,2.2-50.94,2.53-76.43s.64-51.35-.38-76.96c-1.01-25.18-4.07-50.73-13.98-74.12-9.5-22.41-24.81-41.82-34.16-64.3-2.25-5.4-4.08-10.94-5.43-16.63-.22-.94-1.67-.54-1.45.4h0Z"/><path class="cls-1" d="m605.84,431.94c-47.66,8.81-95.37,17.56-143.48,23.59-47.4,5.93-95.27,9.23-143.04,7.04-24.18-1.11-48.29-3.64-72.12-7.86-23.21-4.12-46.13-9.71-68.96-15.53s-45.22-11.78-68.04-16.81c-22.83-5.04-45.89-8.32-68.96-12.04-39.91-6.44-83.6-17.38-109.9-50.75-3.07-3.9-5.79-8.04-8.19-12.4-.47-.85-1.76-.09-1.3.76,19.48,35.39,59.18,51.89,96.85,59.8,23.14,4.86,46.7,7.35,69.94,11.73,23.6,4.44,46.9,10.31,70.16,16.27,46.24,11.86,92.34,23.24,140.06,27.05,48.51,3.87,97.31,1.66,145.61-3.65,48.34-5.32,96.27-13.71,144.08-22.49,5.9-1.08,11.79-2.17,17.69-3.26.95-.18.55-1.62-.4-1.45h0Z"/><path class="cls-1" d="m-56.57,595.08c36.77-5.88,72.21-19.26,103.94-38.72s59.24-44.5,81.17-74.17c23.6-31.94,43.94-72.7,34.81-113.43-4.23-18.85-14.33-35.83-26.56-50.58-13.13-15.84-28.82-29.7-45.5-41.71-8.65-6.23-17.67-11.95-26.99-17.11-8.39-4.64-17.06-8.74-25.71-12.88-16.69-7.97-33.84-16.21-47.34-29.14-3.34-3.2-6.41-6.67-9.15-10.4-.57-.77-1.87-.02-1.3.76,10.78,14.66,26.21,24.56,42.17,32.78,17.08,8.8,34.74,16.27,51.15,26.35,17.82,10.95,34.41,23.98,49.18,38.8,13.83,13.88,26.25,29.78,33.71,48.04,7.82,19.16,8.8,39.83,4.09,59.9-4.82,20.56-14.66,39.66-26.32,57.13-20.44,30.64-47.12,57.02-77.64,77.59-30.42,20.5-64.71,35.27-100.63,42.85-4.47.94-8.97,1.77-13.48,2.49-.95.15-.55,1.6.4,1.45h0Z"/><path class="cls-1" d="m612.23,290.63c-25.78,11.82-48.08,29.84-66.91,50.91s-35.13,46.08-49.36,71.23c-7.22,12.75-14.04,25.73-20.71,38.78-7.57,14.81-15.21,29.62-21.99,44.81-7.05,15.78-13.11,32.11-16.45,49.11-1.58,8.06-2.59,16.38-1.32,24.56s5.13,15.05,10.14,21.4c10.04,12.71,22.08,24.16,34.54,34.47,12.41,10.28,25.73,19.45,39.78,27.34,3.45,1.94,6.95,3.8,10.48,5.58.86.43,1.62-.86.76-1.3-28.6-14.47-54.55-34.04-76.24-57.64-5.47-5.95-11.08-12.1-14.66-19.42-3.86-7.88-4.38-16.74-3.47-25.35,1.8-17.04,7.56-33.79,14.09-49.53,6.48-15.64,14.21-30.74,21.85-45.83,6.48-12.79,13.06-25.53,19.96-38.09,13.82-25.13,28.98-49.73,47.39-71.79s38.84-40.22,63.5-53.32c3.09-1.64,6.22-3.18,9.4-4.64.88-.4.12-1.7-.76-1.3h0Z"/><path class="cls-1" d="m245.36,35.76c21.22,41.62,35.9,86.24,45.61,131.87,9.8,46.05,14.71,93.02,16.97,140.01,2.32,48.25,2.73,96.92.14,145.16-1.39,25.85-4.07,51.64-9.04,77.06-4.67,23.86-11.16,47.34-18.86,70.4-15.62,46.73-36.16,91.61-57.16,136.12-2.56,5.42-5.12,10.84-7.69,16.25-.41.87.88,1.63,1.3.76,21.05-44.41,42.1-88.93,58.88-135.18,17.04-46.97,28.62-95.26,32.71-145.11,4.07-49.57,3.67-99.8,1.89-149.48-1.67-46.78-5.73-93.58-14.34-139.62-8.55-45.75-21.73-90.76-41.34-133.04-2.49-5.37-5.09-10.68-7.77-15.95-.44-.86-1.73-.1-1.3.76h0Z"/><path class="cls-1" d="m511.03,654.07c-17.09-2.89-33.81-7.87-49.65-14.91-7-3.11-14.69-6.55-18.67-13.49-3.9-6.78-3.82-15.03-3.76-22.61.27-35.96,1.71-72.09,5.44-107.86,1.73-16.54,4.35-33.1,9.54-48.94,4.52-13.79,11.14-26.76,19.79-38.42,15.89-21.4,37.71-37.58,60.88-50.34s49.83-23.14,75.7-32.25c3.06-1.08,6.13-2.15,9.2-3.21.91-.31.52-1.76-.4-1.45-26.34,9.1-52.64,18.7-77.47,31.46s-46.66,27.69-64,48.41c-8.82,10.54-16.06,22.32-21.33,35.02-6.46,15.59-9.93,32.23-12.15,48.91-2.35,17.68-3.5,35.53-4.55,53.33-1.1,18.67-1.78,37.37-2.06,56.08-.12,8-.72,16.32.84,24.22,1.45,7.34,5.44,13.06,11.74,17.08,6.95,4.44,15.05,7.47,22.75,10.33,8.15,3.02,16.49,5.53,24.96,7.51,4.23.99,8.5,1.84,12.79,2.56.94.16,1.35-1.29.4-1.45h0Z"/><path class="cls-1" d="m-37.7,223.14c37.44,1.18,71.33,19.4,100.54,41.6,15.16,11.52,29.42,24.25,43.22,37.36s27.51,28.06,35.77,46c16.06,34.87,13.21,75.04,9.7,112.22-.9,9.5-1.15,20.02-6.9,28.09s-14.67,12.27-22.77,16.85c-18.15,10.28-36.61,20.02-55.33,29.21-37.6,18.45-76.28,34.69-115.79,48.59-4.84,1.7-9.69,3.37-14.55,5-.91.31-.52,1.76.4,1.45,40.47-13.6,80.13-29.6,118.69-47.94,19.15-9.1,38.02-18.78,56.59-29.01,4.79-2.64,9.56-5.32,14.31-8.03,3.99-2.28,7.99-4.56,11.66-7.33s6.73-5.73,9.05-9.49c2.46-3.99,3.76-8.54,4.54-13.12,1.61-9.5,2.13-19.29,2.88-28.89s1.3-19.63,1.35-29.47c.09-18.86-1.63-37.97-7.49-55.99-2.93-9.01-6.92-17.68-12-25.68s-11.7-15.96-18.53-23.09c-13.46-14.07-28.19-27.19-43.26-39.51-28.58-23.37-61.47-44.18-98.75-49.21-4.42-.6-8.87-.96-13.33-1.1-.97-.03-.96,1.47,0,1.5h0Z"/><path class="cls-1" d="m-68.99,337.89c35.29,28.09,71.02,56.42,111.41,76.94,19.99,10.15,41.04,18.22,62.94,23.12,23.99,5.36,48.63,7.13,73.16,7.43s49.87-.87,74.8-1.35c25.54-.49,51.01.3,76.5,1.99,50.63,3.37,101.26,9.38,152.08,7.74,45-1.45,90.67-8.84,131.54-28.49,5.09-2.45,10.07-5.09,14.97-7.89.84-.48.08-1.78-.76-1.3-39.9,22.85-85.6,32.64-131.13,35.49-49.25,3.08-98.49-1.93-147.56-5.67-25.23-1.92-50.51-3.51-75.82-3.56s-49.43,1.16-74.15,1.5c-24.67.34-49.47-.16-73.91-3.78-23.1-3.42-45.51-9.93-66.86-19.37-41.28-18.26-77.73-45.58-112.96-73.39-4.41-3.48-8.8-6.98-13.2-10.47-.75-.6-1.82.46-1.06,1.06h0Z"/><path class="cls-1" d="m520.66,358.35c23.98-36.8,36.79-80.57,36.84-124.47.01-12.4-1.02-24.77-3.05-37l-1.45.4c6.51,33.94,13.29,70.52,1.25,104.06-5.82,16.19-15.9,30.35-26.21,43.95-11.42,15.07-22.95,30.04-34.43,45.06-23.39,30.6-46.78,61.2-70.17,91.8-5.01,6.55-10.64,13.04-13.83,20.74s-2.52,15.44.24,23.04c2.62,7.21,6.36,14.1,10.2,20.73s7.87,12.7,12.34,18.68c17.76,23.77,40.85,43.55,67.2,57.22,3.27,1.69,6.58,3.29,9.94,4.79.87.39,1.64-.9.76-1.3-27.24-12.22-51.46-30.77-70.51-53.74-9.63-11.62-17.92-24.36-24.59-37.91-3.87-7.86-7.63-16.68-5.84-25.62,1.61-8.04,6.87-14.73,11.73-21.1,23.21-30.37,46.43-60.74,69.65-91.12,11.56-15.13,23.13-30.26,34.69-45.39,10.18-13.32,20.48-26.81,27.35-42.21,14.02-31.42,9.98-66.62,4.04-99.45-.76-4.22-1.56-8.43-2.37-12.64-.18-.95-1.6-.54-1.45.4,7.17,43.23,1.29,88.41-16.39,128.49-4.88,11.06-10.65,21.7-17.25,31.83-.53.81.77,1.56,1.3.76h0Z"/><path class="cls-1" d="m2.13,154.15c10.4,34.38,33.72,62.37,56.09,89.68,11.77,14.37,23.49,28.83,33.52,44.49,10.51,16.42,19.3,33.95,26.22,52.18,13.76,36.27,20.23,75.37,18.4,114.14-.49,10.33-1.67,20.99-6.62,30.25-4.67,8.75-12.16,15.63-19.47,22.16-14.74,13.17-30.8,24.84-47.85,34.84-8.44,4.94-17.12,9.47-26,13.56s-18.17,7.47-27.17,11.44c-15.5,6.84-31.59,17.91-34.06,36.08-.54,3.98-.23,7.96.96,11.8.28.92,1.73.53,1.45-.4-2.77-8.97-.16-18.34,4.98-25.94,5.42-8.01,13.51-13.51,22.06-17.75s17.81-7.47,26.67-11.32,17.74-8.24,26.28-13c17.02-9.49,33.11-20.64,47.97-33.25,7.26-6.16,14.68-12.54,20.57-20.06s9.23-16.48,10.62-26.04,1.49-19.12,1.37-28.65-.74-19.29-1.85-28.88c-2.19-18.98-6.27-37.74-12.15-55.92s-13.67-36.01-23.13-52.76-19.89-30.93-31.39-45.31c-22.52-28.17-47.94-55.44-61.66-89.33-1.65-4.07-3.1-8.22-4.37-12.42-.28-.92-1.73-.53-1.45.4h0Z"/><path class="cls-2" d="m1002.63,437.52v1c77.21,0,147.84,42.23,184.32,110.21,13.34,24.86,21.41,51.59,23.99,79.44,2.49,26.9-.22,53.72-8.06,79.71-7.84,25.99-20.41,49.83-37.36,70.87-17.55,21.78-39.05,39.59-63.91,52.93-30.33,16.27-64.43,24.87-98.62,24.87-77.22,0-147.85-42.23-184.33-110.21-13.34-24.86-21.41-51.59-23.99-79.44-2.49-26.9.22-53.72,8.06-79.71,7.84-25.99,20.41-49.83,37.36-70.87,17.55-21.78,39.05-39.59,63.91-52.93,30.33-16.27,64.43-24.87,98.62-24.87v-1m0,0c-33.51,0-67.51,8.04-99.1,24.99-102.19,54.83-140.58,182.12-85.75,284.31,37.88,70.6,110.33,110.74,185.21,110.74,33.51,0,67.51-8.04,99.1-24.99,102.19-54.83,140.58-182.12,85.75-284.31-37.88-70.6-110.33-110.74-185.21-110.74h0Z"/><path class="cls-2" d="m1013.72,430.84v1c75.19,0,143.97,41.12,179.49,107.32,12.99,24.21,20.85,50.24,23.36,77.36,2.43,26.2-.21,52.31-7.85,77.62-7.63,25.31-19.87,48.52-36.38,69.01-17.09,21.21-38.03,38.55-62.24,51.54-29.53,15.85-62.74,24.22-96.04,24.22-75.2,0-143.98-41.12-179.5-107.32-12.99-24.21-20.85-50.24-23.36-77.36-2.43-26.2.21-52.31,7.85-77.62,7.63-25.31,19.87-48.52,36.38-69.01,17.09-21.21,38.03-38.55,62.24-51.54,29.53-15.84,62.74-24.22,96.04-24.22v-1m0,0c-32.63,0-65.74,7.83-96.51,24.34-99.52,53.4-136.91,177.37-83.51,276.89,36.89,68.76,107.45,107.85,180.38,107.85,32.63,0,65.74-7.83,96.51-24.34,99.52-53.4,136.91-177.37,83.51-276.89-36.89-68.76-107.45-107.86-180.38-107.85h0Z"/><path class="cls-2" d="m1007.41,426.7c77.38,0,148.16,42.32,184.72,110.45,13.37,24.91,21.46,51.7,24.04,79.62,2.5,26.96-.22,53.84-8.07,79.88-7.85,26.04-20.45,49.94-37.44,71.03-17.59,21.83-39.14,39.68-64.05,53.05-30.39,16.31-64.57,24.93-98.84,24.93-77.39,0-148.17-42.32-184.73-110.45-13.37-24.91-21.46-51.7-24.04-79.62-2.5-26.96.22-53.84,8.07-79.88,7.85-26.04,20.45-49.94,37.44-71.03,17.59-21.83,39.14-39.68,64.05-53.05,30.39-16.31,64.57-24.93,98.84-24.93h0m0-1c-33.58,0-67.65,8.06-99.31,25.05-102.41,54.95-140.88,182.51-85.93,284.92,37.96,70.75,110.57,110.98,185.61,110.98,33.58,0,67.65-8.06,99.31-25.05,102.41-54.95,140.88-182.51,85.93-284.92-37.96-70.75-110.57-110.99-185.61-110.98h0Z"/><path class="cls-2" d="m897.08,470.14c24.54,10.71,43.54,30.37,60.17,50.82,17.16,21.11,32.81,43.49,46.92,66.74s26.6,47.31,37.49,72.15c10.99,25.06,20.31,50.86,27.87,77.16,7.5,26.07,13.27,52.63,17.21,79.46.51,3.45.98,6.91,1.43,10.37.12.94,1.62.96,1.5,0-3.52-27.17-8.86-54.09-16-80.54-7.15-26.48-16.07-52.48-26.68-77.78s-22.85-49.82-36.7-73.46c-13.79-23.55-29.17-46.17-46-67.65-16.23-20.71-34.14-41.31-57.49-54.16-2.92-1.61-5.91-3.07-8.97-4.41-.88-.38-1.64.91-.76,1.3h0Z"/><path class="cls-2" d="m838.95,732.81c26.2.08,52.3-3.63,77.62-10.28,25.5-6.7,50.18-16.27,73.95-27.62,24.28-11.59,47.65-25.02,70.33-39.47s43.6-28.62,63.95-44.83c19.97-15.9,38.65-33.71,53.46-54.6,1.84-2.6,3.62-5.25,5.34-7.93.52-.82-.78-1.57-1.3-.76-13.77,21.55-31.75,40-51.33,56.34-19.88,16.59-41.34,31.3-63.02,45.42-22.28,14.52-45.2,28.12-68.98,40.04-23.49,11.76-47.86,21.87-73.08,29.27-25.16,7.37-51.15,11.99-77.38,12.8-3.19.1-6.37.14-9.56.13-.97,0-.97,1.5,0,1.5h0Z"/><path class="cls-2" d="m814.6,642.74c18.6-9.6,39.71-13.59,60.55-12.46,20.8,1.12,41.36,7.28,59.32,17.85,9.05,5.33,17.43,11.79,24.8,19.27,8.63,8.76,15.96,18.93,19.29,30.91,6.91,24.84-2.34,50.7-16.32,71.25-7.02,10.33-15.28,19.73-23.78,28.86-7.48,8.03-15.9,17.06-17.97,28.24-.48,2.6-.57,5.24-.25,7.87.12.95,1.62.96,1.5,0-1.49-12.19,6.57-22.64,14.24-31.19,8.33-9.3,16.9-18.3,24.29-28.39,14.68-20.05,25.18-44.61,21.28-69.9-1.92-12.41-7.77-23.4-15.85-32.88-7.11-8.34-15.49-15.6-24.61-21.67-17.49-11.63-37.84-18.83-58.69-21.13s-42.34.45-61.65,8.8c-2.33,1.01-4.63,2.1-6.89,3.27-.86.44-.1,1.74.76,1.3h0Z"/><path class="cls-2" d="m1128.14,481.64c-8.52,16-14.84,33.14-18.82,50.82-3.96,17.61-5.62,35.75-4.91,53.79.35,8.98,1.3,17.94,2.83,26.79,1.55,8.94,3.55,17.96,6.58,26.53,2.85,8.06,7.27,15.11,14.41,19.99,6.74,4.6,14.7,7.07,22.52,9.1,16.66,4.32,35.46,8.78,52.29,2.86,2.04-.72,4.01-1.59,5.92-2.6.85-.45.1-1.75-.76-1.3-16.03,8.44-35.05,4.95-51.81.9-7.83-1.89-15.81-3.88-23-7.63-3.54-1.85-6.84-4.13-9.63-7-3.05-3.14-5.3-6.94-7.03-10.94-3.48-8.04-5.45-16.9-7.15-25.47s-2.86-17.48-3.42-26.31c-1.12-17.67.04-35.48,3.46-52.86,3.41-17.37,9.06-34.31,16.88-50.19.95-1.92,1.93-3.83,2.93-5.72.45-.85-.84-1.61-1.3-.76h0Z"/><path class="cls-2" d="m898.02,466.52c9.79,8.86,22.23,13.56,33.91,19.3,6.05,2.98,11.88,6.34,17.18,10.52s10.05,8.92,14.46,13.97c9.22,10.56,17.03,22.31,24.94,33.86,7.95,11.61,15.75,23.33,23.28,35.22,15.15,23.92,29.27,48.54,41.32,74.18s21.87,51.98,28.41,79.37c3.3,13.79,5.86,27.84,7.18,41.96,1.25,13.45,1.17,27.46-3.38,40.34-1.17,3.32-2.65,6.5-4.42,9.54-.49.84.81,1.59,1.3.76,6.86-11.82,8.89-25.57,8.67-39.07s-2.41-27.65-5.1-41.17c-5.51-27.73-14.59-54.65-25.93-80.53-11.52-26.29-25.36-51.52-40.4-75.96-7.54-12.27-15.4-24.34-23.44-36.29-7.88-11.7-15.74-23.49-24.34-34.67s-17.49-20.7-28.98-27.87c-11.33-7.06-24.22-11.17-35.47-18.36-2.87-1.84-5.6-3.88-8.13-6.16-.71-.65-1.78.41-1.06,1.06h0Z"/><path class="cls-2" d="m1175.1,543.22c-18.01,17.99-36.05,35.96-54.94,53.02-18.81,16.99-38.48,33.1-59.61,47.12-10.46,6.94-21.27,13.37-32.44,19.11-12.18,6.26-24.8,11.55-37.58,16.44-12.85,4.91-25.84,9.45-38.69,14.35-12.65,4.82-25.03,10.17-37.21,16.08-23.13,11.22-49.18,23.93-75.51,16.61-3.15-.88-6.19-2.06-9.12-3.53-.86-.43-1.62.86-.76,1.3,23.79,11.95,50.9,3.44,73.49-7.02,12.77-5.91,25.27-12.3,38.32-17.59,12.95-5.26,26.12-9.92,39.23-14.75,12.95-4.78,25.86-9.73,38.38-15.57,11.59-5.41,22.82-11.58,33.67-18.34,21.7-13.51,41.88-29.33,61.07-46.17,19.37-16.99,37.76-35.05,56-53.24,2.26-2.25,4.51-4.5,6.76-6.75.68-.68-.38-1.74-1.06-1.06h0Z"/><path class="cls-2" d="m918.9,832.04c15.31-14.57,27.59-32.22,36.17-51.53,8.55-19.24,13.46-40.11,14.12-61.17s-2.21-42.65-15.54-58.82c-14.14-17.15-37.67-22.77-58.84-24.53-12.58-1.04-25.14-.38-37.61,1.51s-24.17,4.39-36.27,2.64c-2.91-.42-5.76-1.12-8.54-2.08-.91-.32-1.31,1.13-.4,1.45,11.18,3.87,23.1,2.84,34.59,1.15,5.9-.87,11.78-1.93,17.7-2.63,6.26-.74,12.58-1.09,18.88-1.06,11.82.07,23.76,1.4,35.19,4.46,10.26,2.74,20.32,7.1,28.39,14.14,15.96,13.93,20.64,36.03,20.99,56.32.36,20.8-3.55,41.6-11.1,60.97-7.6,19.49-18.94,37.56-33.39,52.71-1.76,1.84-3.57,3.64-5.41,5.4-.7.67.36,1.73,1.06,1.06h0Z"/><path class="cls-2" d="m1132.75,475.34c-8.5,14.23-13.15,30.28-15.11,46.67s-1.35,34.12.27,51.07c.81,8.5,1.87,16.97,3,25.43,1.2,9.03,2.37,18.07,4.15,27.01s4.25,17.97,8.03,26.39c1.63,3.63,3.58,7.16,6.22,10.16s6.21,5.25,10.09,6.69c4.32,1.6,8.91,2.56,13.42,3.46s9.21,1.61,13.86,2.09c9.64,1.01,19.37,1.1,29.02.25,2.37-.21,4.74-.48,7.1-.79.94-.13.96-1.63,0-1.5-18.76,2.52-37.95,1.54-56.33-3-4.17-1.03-8.43-2.21-12.04-4.64s-5.97-5.7-7.96-9.28c-4.29-7.72-6.88-16.48-8.86-25.05s-3.32-17.84-4.54-26.82c-1.14-8.43-2.25-16.86-3.15-25.32-1.75-16.5-2.75-33.18-1.42-49.76,1.31-16.28,5.04-32.49,12.61-47.05.93-1.78,1.91-3.53,2.94-5.25.5-.83-.8-1.59-1.3-.76h0Z"/><path class="cls-2" d="m880.09,474.5c22.68,12.3,43.37,27.94,62.15,45.58,18.94,17.8,36,37.53,51.82,58.12,16.42,21.36,31.97,43.58,46.25,66.43,7.71,12.33,14.89,25.02,20.94,38.25s10.89,26.75,14.97,40.59c8.14,27.55,13.12,55.9,17.73,84.21.58,3.54,1.15,7.08,1.72,10.62.15.95,1.6.55,1.45-.4-4.61-28.65-9.25-57.37-16.79-85.42-3.74-13.89-8.19-27.61-13.68-40.92-5.51-13.37-12.15-26.21-19.52-38.64s-15.45-24.56-23.64-36.53c-7.43-10.85-15.04-21.58-22.93-32.11-15.56-20.76-32.22-40.76-50.72-58.98-18.29-18.02-38.44-34.29-60.58-47.35-2.77-1.63-5.57-3.22-8.4-4.75-.85-.46-1.61.83-.76,1.3h0Z"/><path class="cls-2" d="m1202.03,677.19c-8.15,3.78-16.72,6.62-25.52,8.44-4.31.89-9.16,2.09-13.49.77-3.85-1.17-6.6-4.39-8.86-7.55-5.32-7.46-10.22-15.27-15.08-23.03-4.96-7.91-9.77-15.92-14.43-24.02-8.69-15.14-16.91-31.18-18.2-48.89-1.19-16.37,3.27-32.49,10.16-47.22,7.12-15.21,16.65-29.18,26.51-42.72,1.22-1.67,2.44-3.34,3.67-5.01.57-.78-.73-1.53-1.3-.76-10.29,13.94-20.41,28.16-28.22,43.68-7.43,14.77-12.76,30.95-12.52,47.64.26,17.92,7.55,34.32,16.14,49.7,9.37,16.78,19.59,33.11,30.35,49.04,2.11,3.13,4.31,6.33,7.4,8.58,3.47,2.52,7.6,2.89,11.75,2.36,8.98-1.14,17.91-3.74,26.3-7.09,2.05-.82,4.08-1.7,6.09-2.63.87-.41.11-1.7-.76-1.3h0Z"/><path class="cls-2" d="m808.47,652.6c18.1-11.6,40.04-13.85,61.05-12.74,10.94.58,21.87,1.97,32.67,3.77,11.13,1.85,22.07,4.71,31.64,10.89,16.83,10.86,27.65,28.68,37.24,45.76,2.65,4.71,6.11,9.69,6.82,15.15.79,6.11-2.51,11.91-5.09,17.21-5.18,10.63-10.68,21.1-16.48,31.4-11.6,20.61-24.42,40.53-38.36,59.63-1.72,2.36-3.46,4.7-5.21,7.03-.58.77.72,1.52,1.3.76,14.58-19.4,28-39.66,40.15-60.66,6.07-10.5,11.83-21.19,17.26-32.04,2.63-5.26,5.75-10.62,7.32-16.32.74-2.68.97-5.45.46-8.19s-1.79-5.51-3.15-8.05c-4.85-9.11-10.04-18.15-15.89-26.66-5.65-8.22-12.11-16.02-19.94-22.26-8.58-6.83-18.45-11.07-29.12-13.48-11.02-2.48-22.42-3.9-33.66-4.9-21.13-1.88-43.49-1.19-62.84,8.44-2.38,1.18-4.68,2.5-6.91,3.93-.81.52-.06,1.82.76,1.3h0Z"/><path class="cls-2" d="m830.58,716.17c28.05,1.98,56.54,3.91,84.39-1.04,13.37-2.38,26.3-6.5,38.52-12.41,11.82-5.71,22.91-12.82,33.67-20.32s21.39-15.57,32.22-23.18c11.64-8.18,23.73-15.67,36-22.87,24.22-14.21,49.11-27.52,71.61-44.43,19.77-14.86,37.92-32.56,50.22-54.21,1.5-2.63,2.9-5.32,4.21-8.05.42-.87-.88-1.63-1.3-.76-10.85,22.55-28.1,41.2-47.48,56.74-21.5,17.25-45.68,30.68-69.48,44.44-12.36,7.15-24.68,14.4-36.55,22.35-10.86,7.27-21.3,15.12-31.89,22.76-21.47,15.48-43.87,29.91-69.87,36.33-27.43,6.77-56.04,5.71-83.99,3.87-3.43-.23-6.86-.47-10.3-.71-.96-.07-.96,1.43,0,1.5h0Z"/><path class="cls-2" d="m1112.34,536.49c-.61-24.9-8.66-49.48-22.73-70.01-3.98-5.8-8.44-11.27-13.32-16.34l-1.06,1.06c12.48,12.33,25.64,25.38,31.98,42.11,3.53,9.32,4.2,19.18,3.95,29.06-.27,10.55-.99,21.11-1.52,31.65-1.09,21.57-2.19,43.14-3.28,64.71-.26,5.06-.72,10.16-.67,15.23.04,4.38.85,8.7,3.62,12.21s6.51,5.63,10.23,7.68c4.02,2.21,8.19,4.16,12.46,5.85,17.23,6.82,36.2,9.31,54.59,7.07,2.21-.27,4.41-.61,6.59-1,.95-.17.55-1.62-.4-1.45-18.28,3.32-37.33,1.86-54.92-4.06-4.43-1.49-8.77-3.26-12.98-5.32s-8.16-4.03-11.61-6.88c-3.74-3.1-5.67-7.09-6.01-11.92s.21-9.97.46-14.9c1.08-21.24,2.15-42.48,3.23-63.72.53-10.52,1.15-21.05,1.58-31.58.4-9.79.29-19.76-2.58-29.22-5.04-16.61-17.03-29.91-29.02-41.97-1.54-1.54-3.08-3.08-4.63-4.61-.69-.68-1.73.36-1.06,1.06,17.1,17.76,28.75,40.52,33.41,64.72,1.3,6.78,2.03,13.67,2.2,20.57.02.96,1.52.97,1.5,0h0Z"/><path class="cls-2" d="m804.54,607.58c16.5,13.21,37.19,18.75,57.11,24.56,10.18,2.97,20.33,6.08,30.04,10.36,9.42,4.15,18.42,9.23,26.88,15.1,17.01,11.82,31.77,26.93,43.06,44.3,3.07,4.72,6.12,9.65,7.6,15.13,1.66,6.18.56,12.46-.87,18.56-2.65,11.33-6.48,22.4-11.42,32.94-2.45,5.23-5.17,10.34-8.14,15.3s-6.33,9.57-9.28,14.49c-4.89,8.16-8.39,18.5-3.55,27.53,1.01,1.88,2.38,3.52,4.05,4.84.75.59,1.82-.46,1.06-1.06-3.74-2.95-5.58-7.49-5.87-12.17-.33-5.28,1.28-10.31,3.68-14.96,2.63-5.08,6.05-9.69,9.11-14.52,3.09-4.88,5.93-9.92,8.5-15.1,5.11-10.27,9.19-21.06,12.13-32.15,1.52-5.72,3.09-11.68,2.98-17.65s-2.19-10.95-4.93-15.84c-5.05-9.01-11.4-17.41-18.24-25.12-6.79-7.65-14.3-14.65-22.39-20.9-8.15-6.29-16.88-11.83-26.07-16.47-9.27-4.68-18.98-8.3-28.89-11.37-20.05-6.2-41.28-10.66-59.11-22.27-2.19-1.43-4.32-2.96-6.36-4.6-.75-.6-1.81.46-1.06,1.06h0Z"/><circle class="cls-3" cx="1246" cy="197.18" r="192"/><circle class="cls-3" cx="1246" cy="194.08" r="189.93"/><circle class="cls-3" cx="1249.11" cy="194.08" r="184.75"/><polygon class="cls-3" points="1312.44 193.45 1266.8 243.5 1200.63 229.01 1180.1 164.45 1225.74 114.4 1291.91 128.89 1312.44 193.45"/><polygon class="cls-3" points="1203.79 227.77 1158.15 277.83 1091.98 263.33 1071.45 198.78 1117.09 148.73 1183.26 163.22 1203.79 227.77"/><polygon class="cls-3" points="1225.52 114.95 1179.88 165.01 1113.72 150.51 1093.19 85.96 1138.82 35.91 1204.99 50.4 1225.52 114.95"/><polygon class="cls-3" points="1337.31 78.73 1291.67 128.78 1225.5 114.29 1204.97 49.74 1250.61 -.32 1316.78 14.18 1337.31 78.73"/><polygon class="cls-3" points="1427.36 157.39 1381.72 207.45 1315.55 192.95 1295.02 128.4 1340.66 78.34 1406.83 92.84 1427.36 157.39"/><polygon class="cls-3" points="1403.55 273.32 1357.91 323.37 1291.74 308.88 1271.21 244.32 1316.85 194.27 1383.02 208.76 1403.55 273.32"/><polygon class="cls-3" points="1288.66 312.65 1243.02 362.7 1176.85 348.21 1156.32 283.65 1201.96 233.6 1268.13 248.09 1288.66 312.65"/><path class="cls-3" d="m1246.26,361.16l42.73-52.56,66.88,10.73c3.58,9.39,7.17,18.78,10.75,28.17"/><path class="cls-3" d="m1094.03,259.67l66.17,14.5,20.53,64.55c-6.77,7.43-13.54,14.85-20.32,22.28"/><circle class="cls-3" cx="1246" cy="206.5" r="192"/><circle class="cls-3" cx="1246" cy="203.39" r="189.93"/><circle class="cls-3" cx="1249.11" cy="203.39" r="184.75"/><polygon class="cls-3" points="1312.44 202.76 1266.8 252.82 1200.63 238.32 1180.1 173.77 1225.74 123.71 1291.91 138.21 1312.44 202.76"/><polygon class="cls-3" points="1203.79 237.09 1158.15 287.15 1091.98 272.65 1071.45 208.1 1117.09 158.04 1183.26 172.54 1203.79 237.09"/><polygon class="cls-3" points="1225.52 124.27 1179.88 174.33 1113.72 159.83 1093.19 95.28 1138.82 45.22 1204.99 59.72 1225.52 124.27"/><polygon class="cls-3" points="1337.31 88.04 1291.67 138.1 1225.5 123.6 1204.97 59.05 1250.61 8.99 1316.78 23.49 1337.31 88.04"/><polygon class="cls-3" points="1427.36 166.71 1381.72 216.76 1315.55 202.27 1295.02 137.71 1340.66 87.66 1406.83 102.15 1427.36 166.71"/><polygon class="cls-3" points="1403.55 282.63 1357.91 332.69 1291.74 318.19 1271.21 253.64 1316.85 203.58 1383.02 218.08 1403.55 282.63"/><polygon class="cls-3" points="1288.66 321.96 1243.02 372.02 1176.85 357.52 1156.32 292.97 1201.96 242.91 1268.13 257.41 1288.66 321.96"/><path class="cls-3" d="m1246.26,370.48l42.73-52.56,66.88,10.73c3.58,9.39,7.17,18.78,10.75,28.17"/><path class="cls-3" d="m1094.03,268.99l66.17,14.5,20.53,64.55c-6.77,7.43-13.54,14.85-20.32,22.28"/><circle class="cls-4" cx="510.46" cy="661.55" r="311.62"/><circle class="cls-4" cx="510.46" cy="656.51" r="308.26"/><circle class="cls-4" cx="515.5" cy="656.51" r="299.86"/><polygon class="cls-4" points="618.29 655.48 544.22 736.72 436.82 713.2 403.5 608.43 477.58 527.19 584.97 550.72 618.29 655.48"/><polygon class="cls-4" points="441.95 711.2 367.87 792.44 260.48 768.91 227.16 664.14 301.23 582.9 408.63 606.43 441.95 711.2"/><polygon class="cls-4" points="477.22 528.09 403.15 609.33 295.76 585.8 262.44 481.04 336.51 399.8 443.9 423.32 477.22 528.09"/><polygon class="cls-4" points="658.65 469.3 584.58 550.54 477.18 527.01 443.86 422.24 517.94 341 625.33 364.53 658.65 469.3"/><polygon class="cls-4" points="804.8 596.97 730.73 678.21 623.33 654.68 590.01 549.91 664.08 468.67 771.48 492.2 804.8 596.97"/><polygon class="cls-4" points="766.16 785.11 692.09 866.35 584.7 842.82 551.38 738.06 625.45 656.82 732.84 680.34 766.16 785.11"/><polygon class="cls-4" points="579.7 848.95 505.62 930.19 398.23 906.66 364.91 801.89 438.98 720.65 546.37 744.18 579.7 848.95"/><path class="cls-4" d="m263.81,762.97l107.39,23.53,33.32,104.77c-10.99,12.05-21.98,24.11-32.97,36.16"/><circle class="cls-4" cx="510.46" cy="676.67" r="311.62"/><circle class="cls-4" cx="510.46" cy="671.63" r="308.26"/><circle class="cls-4" cx="515.5" cy="671.63" r="299.86"/><polygon class="cls-4" points="618.29 670.6 544.22 751.84 436.82 728.32 403.5 623.55 477.58 542.31 584.97 565.83 618.29 670.6"/><polygon class="cls-4" points="441.95 726.32 367.87 807.56 260.48 784.03 227.16 679.26 301.23 598.02 408.63 621.55 441.95 726.32"/><polygon class="cls-4" points="477.22 543.21 403.15 624.45 295.76 600.92 262.44 496.16 336.51 414.91 443.9 438.44 477.22 543.21"/><polygon class="cls-4" points="658.65 484.42 584.58 565.66 477.18 542.13 443.86 437.36 517.94 356.12 625.33 379.65 658.65 484.42"/><polygon class="cls-4" points="804.8 612.09 730.73 693.33 623.33 669.8 590.01 565.03 664.08 483.79 771.48 507.32 804.8 612.09"/><polygon class="cls-4" points="766.16 800.23 692.09 881.47 584.7 857.94 551.38 753.18 625.45 671.93 732.84 695.46 766.16 800.23"/><polygon class="cls-4" points="579.7 864.07 505.62 945.31 398.23 921.78 364.91 817.01 438.98 735.77 546.37 759.3 579.7 864.07"/></svg>